<?xml version="1.0" standalone="no"?>
<!DOCTYPE svg PUBLIC "-//W3C//DTD SVG 20010904//EN"
 "http://www.w3.org/TR/2001/REC-SVG-20010904/DTD/svg10.dtd">
<svg version="1.0" xmlns="http://www.w3.org/2000/svg"
 width="431.000000pt" height="431.000000pt" viewBox="0 0 431.000000 431.000000"
 preserveAspectRatio="xMidYMid meet">

<g transform="translate(0.000000,431.000000) scale(0.100000,-0.100000)"
fill="#000000" stroke="none">
<path d="M0 2155 l0 -2155 1074 0 c892 0 1075 2 1079 13 3 8 28 19 57 24 51
10 51 10 46 -13 l-6 -24 1030 0 1030 0 0 243 c0 242 0 242 -24 270 -17 19 -23
36 -20 53 4 20 0 27 -16 31 -11 3 -20 14 -20 25 0 11 -7 26 -15 34 -8 8 -17
31 -20 52 -4 20 -12 47 -18 60 -10 20 -12 21 -17 6 -4 -10 -11 5 -20 42 -8 33
-20 63 -27 67 -8 5 -10 18 -7 36 5 22 2 29 -13 33 -16 4 -21 18 -27 64 -4 32
-14 66 -22 75 -9 11 -11 19 -5 23 6 4 3 21 -9 44 -29 55 -59 142 -50 142 4 0
22 -16 39 -35 32 -37 58 -47 46 -17 -4 9 -10 25 -12 35 -3 10 -11 16 -18 13
-13 -5 -45 27 -45 45 0 5 -4 8 -9 4 -5 -3 -27 11 -48 30 -21 19 -44 35 -51 35
-23 0 -112 54 -112 68 0 15 42 7 48 -9 2 -5 9 -9 15 -9 18 0 213 -97 230 -115
10 -9 17 -29 17 -45 0 -25 69 -129 92 -138 4 -2 8 -10 8 -17 0 -7 3 -15 8 -17
12 -5 70 -83 96 -128 l24 -43 0 59 c0 35 -7 68 -16 82 -11 17 -11 22 -2 20 7
-2 15 3 17 9 3 7 -2 13 -10 13 -19 0 -33 50 -16 60 6 5 14 30 16 57 5 45 2 53
-22 76 -20 18 -26 31 -22 48 3 12 2 31 -4 41 -7 12 -6 18 1 18 7 0 8 5 3 13
-9 15 -5 48 10 65 8 11 5 12 -17 6 -27 -6 -27 -6 -20 37 4 24 11 45 16 47 11
5 10 32 -2 32 -5 0 -10 -7 -10 -15 0 -8 -9 -15 -20 -15 -17 0 -18 3 -9 27 6
15 14 33 20 39 6 7 4 21 -5 39 -8 16 -13 32 -10 37 3 4 0 8 -5 8 -6 0 -11 5
-11 10 0 6 7 10 15 10 8 0 15 5 15 10 0 6 -10 10 -22 10 -21 1 -22 2 -5 14 13
10 15 21 11 45 -4 19 -2 37 6 46 10 12 10 15 -4 15 -9 0 -16 5 -16 11 0 7 12
8 33 4 l32 -8 -36 34 c-20 19 -34 40 -32 47 7 18 23 15 23 -5 0 -13 3 -14 12
-5 10 10 10 17 0 32 -6 11 -12 27 -12 36 0 13 3 14 15 4 22 -19 19 6 -4 29
-10 10 -22 33 -26 50 -5 25 -3 31 10 31 13 0 16 6 13 24 -4 18 0 26 15 30 17
4 18 7 7 21 -11 14 -10 17 6 21 16 5 61 72 52 79 -2 1 -12 7 -23 13 -17 10
-17 11 -3 12 17 0 38 28 38 50 0 7 -7 10 -15 6 -9 -3 -15 0 -15 8 0 8 7 16 15
20 9 3 15 19 15 41 0 26 -3 34 -12 29 -10 -6 -10 -5 -1 7 10 12 13 213 13 892
l0 877 -2155 0 -2155 0 0 -2155z m2520 1670 c6 -8 10 -20 7 -27 -3 -9 -7 -6
-13 7 -4 11 -12 23 -18 27 -8 5 -8 8 0 8 6 0 17 -7 24 -15z m279 -337 c0 -31
-1 -31 -10 -10 -5 13 -7 28 -3 33 10 16 14 9 13 -23z m-380 -7 c12 -16 21 -42
21 -58 0 -15 20 -82 45 -148 25 -66 45 -123 45 -127 0 -5 -16 -8 -35 -8 -28 0
-35 -4 -35 -20 0 -18 -7 -20 -72 -20 -86 0 -82 18 6 27 80 8 71 23 -29 49 -24
6 -130 16 -166 15 -32 -1 -45 24 -24 45 8 9 15 23 15 33 0 9 4 21 9 26 5 6 14
46 20 90 13 88 30 117 60 98 11 -7 23 -8 32 -2 8 5 26 9 42 9 15 0 27 5 27 10
0 19 19 10 39 -19z m401 -67 c0 -8 -4 -14 -10 -14 -5 0 -10 9 -10 21 0 11 5
17 10 14 6 -3 10 -13 10 -21z m5 -161 c-3 -27 -6 -56 -6 -65 0 -22 -11 -29
-28 -19 -19 12 -4 118 18 124 9 3 17 5 19 6 1 0 0 -20 -3 -46z m-1064 -3 c10
-6 26 -10 37 -10 11 0 35 -6 53 -14 19 -8 37 -15 41 -16 4 -1 21 -5 38 -10 24
-7 32 -6 37 6 6 16 79 19 103 4 13 -8 12 -11 -5 -25 -39 -29 -125 -67 -141
-61 -20 8 -190 -11 -269 -30 -33 -7 -77 -14 -97 -14 -47 0 -110 -54 -101 -88
4 -17 -1 -24 -22 -32 -15 -6 -30 -8 -35 -5 -4 2 -1 31 7 62 7 32 15 71 18 87
11 78 60 133 137 152 56 14 167 11 199 -6z m971 -122 c-7 -7 -12 -8 -12 -2 0
6 3 14 7 17 3 4 9 5 12 2 2 -3 -1 -11 -7 -17z m-112 -50 c0 -9 -4 -20 -10 -23
-6 -4 -10 9 -10 32 0 28 3 34 10 23 5 -8 10 -23 10 -32z m94 6 c-5 -21 -2 -31
15 -43 61 -46 79 -434 24 -519 -8 -13 -29 -30 -46 -37 -31 -13 -33 -17 -50
-110 -9 -53 -31 -126 -47 -162 -16 -36 -28 -69 -25 -73 3 -5 8 -65 11 -135 5
-121 4 -128 -18 -161 -13 -19 -34 -37 -48 -40 -14 -3 -33 -10 -43 -15 -21 -12
-20 -12 -37 20 -10 19 -10 25 1 32 11 8 11 11 -4 20 -10 6 -17 20 -15 37 1 15
-2 37 -6 48 -3 12 -2 34 4 49 16 43 2 47 -46 14 -36 -25 -48 -28 -60 -19 -9 8
-28 10 -51 7 -30 -5 -42 -2 -60 15 -17 16 -20 25 -12 34 6 7 16 11 22 8 7 -2
30 11 52 31 24 20 47 32 56 29 19 -5 83 82 72 99 -3 5 -7 48 -8 96 -1 66 -5
86 -16 86 -8 0 -24 11 -36 25 -21 24 -22 24 -36 6 -16 -21 -51 -19 -132 9 -92
33 -115 45 -115 61 0 10 5 14 15 10 13 -5 12 -1 -2 19 -20 27 -31 27 -47 2 -8
-12 -7 -23 2 -38 18 -28 -4 -62 -48 -75 -17 -5 -32 -13 -33 -19 -2 -13 -64
-35 -100 -35 -40 0 -86 -27 -98 -57 -10 -26 -4 -63 10 -63 4 0 5 -16 3 -35 -3
-21 0 -35 7 -35 6 0 11 -8 11 -19 0 -10 11 -26 25 -35 30 -20 35 -20 35 0 0
10 -6 14 -14 11 -10 -4 -14 3 -13 29 2 66 80 110 167 94 22 -4 43 -9 45 -12
10 -10 -19 -65 -39 -74 -52 -23 -21 -75 49 -80 75 -5 80 -35 15 -99 -25 -24
-49 -38 -69 -40 -17 -1 -34 -5 -38 -9 -14 -13 -76 -5 -100 14 -14 11 -34 20
-43 20 -20 0 -84 56 -93 82 -4 10 -12 15 -21 12 -11 -4 -13 0 -9 18 4 13 12
26 19 31 10 6 9 13 -2 37 -18 36 -32 46 -46 32 -7 -7 -4 -20 11 -41 12 -17 17
-32 12 -36 -6 -3 -17 7 -26 22 -13 22 -15 23 -10 6 5 -17 2 -23 -10 -23 -9 0
-13 -4 -10 -10 3 -5 3 -15 0 -21 -12 -19 -73 62 -127 169 -29 56 -55 102 -59
102 -4 0 -9 -7 -13 -15 -17 -45 -73 4 -123 108 l-40 84 3 103 c3 56 6 106 9
110 11 17 44 -4 55 -33 9 -28 8 -33 -21 -59 -26 -24 -30 -34 -25 -59 10 -51
42 -86 81 -91 19 -2 35 -3 35 -2 0 2 -9 19 -21 38 -11 20 -19 41 -16 48 3 8 8
3 14 -11 18 -47 23 5 8 91 -19 105 -20 171 -2 166 14 -5 24 -26 62 -121 15
-37 36 -78 46 -91 28 -35 81 -50 156 -43 39 4 63 3 63 -4 0 -5 11 -21 25 -34
21 -22 33 -25 90 -25 69 0 71 1 55 30 -9 17 -12 17 -40 3 -42 -21 -80 -10 -80
22 0 17 9 29 28 39 26 14 50 37 110 104 17 18 33 49 36 70 4 20 14 58 22 85
13 38 20 47 39 47 25 0 59 -38 94 -107 14 -29 26 -41 36 -37 8 3 33 -10 58
-30 24 -20 49 -36 54 -36 6 0 14 -7 17 -16 5 -13 15 -15 54 -9 101 15 200 59
235 106 24 33 36 93 37 183 0 58 2 67 14 57 8 -7 17 -27 21 -44 3 -18 10 -50
15 -72 5 -22 12 -66 15 -97 5 -47 9 -56 22 -51 14 5 15 0 10 -36 -4 -33 -3
-40 8 -31 7 6 19 8 28 4 29 -11 40 32 28 106 -1 3 -5 -2 -11 -10 -11 -18 -26
17 -45 103 -13 58 -10 85 16 157 6 19 13 41 15 48 2 6 6 12 9 12 3 0 2 -12 -1
-26z m-191 -37 c17 -22 22 -46 25 -122 4 -87 2 -98 -19 -130 -26 -37 -47 -49
-119 -65 -112 -24 -197 -7 -257 55 -40 41 -43 59 -5 39 15 -7 32 -14 39 -14 6
0 13 -5 15 -11 2 -5 10 -11 18 -13 15 -3 36 -10 75 -26 22 -8 61 11 48 23 -3
4 -2 7 4 7 6 0 9 8 6 19 -3 10 0 22 6 25 6 4 11 18 11 31 0 13 5 27 10 30 22
13 8 25 -25 22 -39 -5 -41 -1 -20 27 21 28 19 35 -11 33 -32 -2 -39 11 -19 37
12 16 18 17 27 8 17 -17 31 -15 24 4 -4 9 -1 23 5 30 9 12 18 9 52 -16 22 -16
44 -27 49 -24 12 7 -10 34 -28 34 -14 0 -19 21 -9 32 14 14 79 -9 98 -35z
m-652 -114 c8 -20 6 -30 -5 -41 -14 -14 -16 -12 -26 13 -12 31 -7 55 10 55 6
0 15 -12 21 -27z m-55 -8 c6 -15 -11 -45 -26 -45 -13 0 -18 38 -7 49 15 15 27
14 33 -4z m-196 -52 c0 -26 -5 -36 -19 -40 -34 -9 -30 -29 12 -62 22 -17 45
-31 51 -31 17 0 36 -50 36 -96 l0 -43 -46 -7 c-103 -15 -157 13 -193 102 -36
88 -30 204 10 204 14 0 5 -50 -11 -60 -12 -7 -11 -10 4 -16 12 -5 23 -2 30 8
6 8 25 22 41 30 17 9 39 25 49 37 24 27 36 18 36 -26z m130 22 c0 -14 -4 -25
-10 -25 -5 0 -10 11 -10 25 0 14 5 25 10 25 6 0 10 -11 10 -25z m135 -82 c-4
-32 -13 -72 -19 -88 -16 -37 -80 -95 -105 -95 -16 0 -17 5 -10 45 11 56 28 89
73 140 20 22 36 43 36 48 0 4 7 7 16 7 14 0 15 -8 9 -57z m-655 -12 c0 -12
-20 -25 -27 -18 -7 7 6 27 18 27 5 0 9 -4 9 -9z m-25 -131 c-4 -12 -9 -19 -12
-17 -3 3 -2 15 2 27 4 12 9 19 12 17 3 -3 2 -15 -2 -27z m3090 -190 c3 -5 1
-10 -4 -10 -6 0 -11 5 -11 10 0 6 2 10 4 10 3 0 8 -4 11 -10z m-2286 -129 c11
-7 7 -13 -17 -25 -32 -17 -62 -21 -62 -9 0 12 35 42 50 42 8 0 21 -3 29 -8z
m2253 -13 c-9 -9 -15 -9 -24 0 -9 9 -7 12 12 12 19 0 21 -3 12 -12z m-2202 -8
c0 -5 -2 -10 -4 -10 -3 0 -8 5 -11 10 -3 6 -1 10 4 10 6 0 11 -4 11 -10z
m2165 -10 c3 -5 1 -10 -4 -10 -6 0 -11 5 -11 10 0 6 2 10 4 10 3 0 8 -4 11
-10z m-11 -51 c-3 -5 -10 -7 -15 -3 -5 3 -7 10 -3 15 3 5 10 7 15 3 5 -3 7
-10 3 -15z m-1950 -27 c2 -4 1 -14 -4 -22 -7 -11 -12 -12 -21 -3 -6 6 -8 16
-5 22 8 13 23 14 30 3z m-164 -23 c0 -5 -4 -9 -10 -9 -5 0 -10 7 -10 16 0 8 5
12 10 9 6 -3 10 -10 10 -16z m2100 -143 c0 -11 -19 -15 -25 -6 -3 5 1 10 9 10
9 0 16 -2 16 -4z m-2492 -88 c11 -13 24 -36 28 -53 6 -26 8 -27 15 -10 6 15 8
16 8 4 1 -9 12 -21 26 -27 14 -6 25 -16 25 -22 0 -5 8 -10 18 -10 19 0 103
-29 87 -30 -5 0 -2 -7 9 -15 18 -13 14 -41 -5 -29 -5 3 -8 -8 -7 -26 2 -31 53
-100 74 -100 5 0 22 -19 37 -42 25 -40 26 -43 11 -66 -16 -24 -15 -26 6 -42
29 -22 18 -40 -19 -35 -23 2 -30 -1 -34 -17 -6 -21 10 -68 28 -80 6 -5 5 -11
-4 -17 -14 -9 -6 -35 9 -26 5 3 11 1 15 -5 3 -5 26 -10 50 -10 24 0 47 5 50
10 4 6 10 8 15 5 5 -3 23 1 39 10 37 19 68 19 86 1 15 -14 74 -8 139 14 35 12
46 13 46 2 0 -5 -16 -14 -35 -22 -19 -8 -35 -17 -35 -21 0 -4 -3 -15 -7 -25
-5 -14 -2 -16 17 -11 35 9 70 -19 70 -57 0 -38 -25 -139 -45 -183 -8 -17 -15
-38 -15 -47 0 -9 -5 -16 -11 -16 -13 0 -3 -53 11 -58 9 -3 -16 -58 -30 -67 -5
-3 -11 -18 -15 -34 -3 -16 -12 -35 -20 -41 -7 -6 -26 -51 -42 -101 -21 -67
-32 -89 -45 -89 -10 0 -47 -12 -83 -26 -54 -22 -75 -25 -117 -20 -44 6 -54 4
-74 -15 -13 -12 -24 -33 -24 -46 0 -13 -4 -23 -9 -23 -13 0 -23 49 -16 80 4
19 1 33 -10 44 -10 9 -14 23 -11 31 3 8 -2 28 -10 45 -9 17 -21 60 -27 95 -11
62 -10 64 18 101 16 21 43 66 60 99 24 49 35 61 58 63 17 2 27 9 28 20 0 16 1
16 7 0 9 -20 27 -9 61 39 24 35 22 73 -4 73 -8 0 -21 15 -30 34 -9 19 -37 55
-62 80 -42 43 -44 48 -28 60 17 12 17 13 -1 27 -10 8 -44 43 -74 79 -30 36
-63 74 -73 85 -45 48 -135 221 -122 233 2 2 11 -9 19 -25 12 -21 16 -23 14 -8
-1 11 0 25 4 30 8 13 -2 65 -12 65 -4 0 -5 11 -3 24 4 20 0 25 -18 28 -21 3
-25 11 -35 71 -6 37 -8 67 -4 67 4 0 16 -10 28 -22z m1936 -457 c3 -4 20 -11
38 -15 22 -4 29 -9 21 -17 -7 -7 -23 -4 -52 11 -22 12 -41 24 -41 26 0 8 29 4
34 -5z m-1579 -71 c3 -5 2 -10 -4 -10 -5 0 -13 5 -16 10 -3 6 -2 10 4 10 5 0
13 -4 16 -10z m-1935 -402 c0 -12 3 -18 7 -14 4 3 12 -8 18 -26 8 -25 8 -37
-1 -52 -13 -20 -8 -50 7 -40 11 6 11 1 3 -20 -3 -9 -11 -16 -16 -16 -6 0 -8 7
-5 15 4 8 2 17 -3 20 -6 4 -10 -3 -10 -14 0 -12 -4 -21 -10 -21 -6 0 -10 38
-10 95 0 57 4 95 10 95 6 0 10 -10 10 -22z m2014 -749 l13 -30 18 27 17 27 17
-26 c20 -34 29 -34 41 -1 16 41 31 17 29 -47 -2 -59 -2 -59 -38 -69 -20 -5
-55 -12 -78 -16 -42 -6 -42 -6 -63 38 -22 43 -22 44 -4 86 10 23 22 42 27 42
4 0 14 -14 21 -31z"/>
<path d="M2712 2991 c-9 -5 -6 -21 9 -61 21 -56 46 -94 36 -55 -3 11 -8 41
-12 67 -7 50 -14 61 -33 49z"/>
<path d="M2092 2558 c-7 -7 -12 -17 -12 -24 0 -14 49 -25 79 -17 40 10 17 53
-29 53 -14 0 -31 -5 -38 -12z"/>
<path d="M1916 2534 c-21 -21 -20 -31 5 -39 51 -16 93 22 50 45 -27 14 -37 13
-55 -6z"/>
<path d="M1689 2275 c-1 -5 -1 -13 0 -17 0 -4 -4 -19 -9 -33 -11 -30 4 -35 20
-6 6 13 7 28 1 43 -6 13 -11 19 -12 13z"/>
<path d="M2425 2980 c3 -5 11 -10 16 -10 6 0 7 5 4 10 -3 6 -11 10 -16 10 -6
0 -7 -4 -4 -10z"/>
<path d="M4206 2161 c-4 -5 -2 -12 3 -15 5 -4 12 -2 15 3 4 5 2 12 -3 15 -5 4
-12 2 -15 -3z"/>
<path d="M4270 1400 c0 -5 5 -10 10 -10 6 0 10 5 10 10 0 6 -4 10 -10 10 -5 0
-10 -4 -10 -10z"/>
<path d="M4290 1176 c0 -8 5 -18 10 -21 6 -3 10 3 10 14 0 12 -4 21 -10 21 -5
0 -10 -6 -10 -14z"/>
<path d="M4070 1160 c0 -13 18 -22 24 -11 3 5 -1 11 -9 15 -8 3 -15 1 -15 -4z"/>
<path d="M4146 1015 c4 -8 8 -15 10 -15 2 0 4 7 4 15 0 8 -4 15 -10 15 -5 0
-7 -7 -4 -15z"/>
<path d="M2210 10 c0 -5 5 -10 10 -10 6 0 10 5 10 10 0 6 -4 10 -10 10 -5 0
-10 -4 -10 -10z"/>
</g>
</svg>
